<svg width="516" height="115" viewBox="0 0 516 115" fill="none" xmlns="http://www.w3.org/2000/svg">
<path d="M120.563 31.1094H92.5874V43.7652H105.909C104.577 49.094 109.906 71.7413 97.9162 71.7413C88.3244 71.7413 86.3705 64.1922 86.5926 60.4176H72.6045C72.6045 75.0718 79.9316 83.731 97.9162 84.3971C112.304 84.93 119.009 73.0735 120.563 67.0786V31.1094Z" fill="#244B99"/>
<path d="M69.9401 31.1094L81.9299 57.7532H66.6097L61.2809 46.4296L46.6268 84.3971H33.3048C37.3014 82.3988 45.2946 76.6704 45.2946 69.743C45.2946 62.8156 43.0742 58.8634 41.9641 57.7532L53.9538 31.1094H69.9401Z" fill="#244B99"/>
<path d="M69.9401 71.7413H53.9538L48.625 84.3971H75.935L69.9401 71.7413Z" fill="#244B99"/>
<path d="M51.2894 31.1094L46.6268 42.433H17.3185C13.3219 42.433 10.6575 51.0923 21.3151 51.0923C31.9726 51.0923 41.9641 55.7549 41.9641 68.4108C41.9641 78.5355 32.6387 82.3988 27.9761 83.0649H0V71.7413H18.6507C27.9761 71.7413 28.6422 69.743 28.6422 67.0786C28.6422 64.4142 26.6439 63.082 20.649 62.4159C14.6541 61.7498 0 60.4176 0 47.0957C0 36.4381 8.88129 31.9975 13.3219 31.1094H51.2894Z" fill="#244B99"/>
<g opacity="0.5" filter="url(#filter0_f_380_6)">
<circle cx="138.991" cy="29.8591" r="1.04749" transform="rotate(-60.5335 138.991 29.8591)" fill="#244B99"/>
</g>
<g opacity="0.5" filter="url(#filter1_f_380_6)">
<circle cx="138.991" cy="51.7283" r="1.04749" transform="rotate(-60.5335 138.991 51.7283)" fill="#244B99"/>
</g>
<g opacity="0.5" filter="url(#filter2_f_380_6)">
<circle cx="138.991" cy="74.7727" r="1.04749" transform="rotate(-60.5335 138.991 74.7727)" fill="#244B99"/>
</g>
<g opacity="0.5" filter="url(#filter3_f_380_6)">
<circle cx="138.991" cy="40.7634" r="1.04749" transform="rotate(-60.5335 138.991 40.7634)" fill="#244B99"/>
</g>
<g opacity="0.5" filter="url(#filter4_f_380_6)">
<circle cx="138.991" cy="62.6321" r="1.04749" transform="rotate(-60.5335 138.991 62.6321)" fill="#244B99"/>
</g>
<g opacity="0.5" filter="url(#filter5_f_380_6)">
<circle cx="138.991" cy="85.6775" r="1.04749" transform="rotate(-60.5335 138.991 85.6775)" fill="#244B99"/>
</g>
<g opacity="0.5" filter="url(#filter6_f_380_6)">
<circle cx="235.13" cy="30.8263" r="1.04749" fill="#244B99"/>
</g>
<g opacity="0.5" filter="url(#filter7_f_380_6)">
<circle cx="235.13" cy="41.0021" r="1.04749" fill="#244B99"/>
</g>
<g opacity="0.5" filter="url(#filter8_f_380_6)">
<circle cx="235.06" cy="51.5291" r="1.04749" transform="rotate(-60.5335 235.06 51.5291)" fill="#244B99"/>
</g>
<g opacity="0.5" filter="url(#filter9_f_380_6)">
<circle cx="235.06" cy="73.3767" r="1.04749" transform="rotate(-60.5335 235.06 73.3767)" fill="#244B99"/>
</g>
<g opacity="0.5" filter="url(#filter10_f_380_6)">
<circle cx="235.06" cy="62.4529" r="1.04749" transform="rotate(-60.5335 235.06 62.4529)" fill="#244B99"/>
</g>
<g opacity="0.5" filter="url(#filter11_f_380_6)">
<circle cx="235.06" cy="84.3006" r="1.04749" transform="rotate(-60.5335 235.06 84.3006)" fill="#244B99"/>
</g>
<g opacity="0.5" filter="url(#filter12_f_380_6)">
<circle cx="225.104" cy="25.2897" r="1.04749" fill="#244B99"/>
</g>
<g opacity="0.8" filter="url(#filter13_f_380_6)">
<circle cx="225.104" cy="35.465" r="1.04749" fill="#244B99"/>
</g>
<g opacity="0.8" filter="url(#filter14_f_380_6)">
<circle cx="225.184" cy="67.8909" r="1.04749" transform="rotate(-60.5335 225.184 67.8909)" fill="#244B99"/>
</g>
<g opacity="0.8" filter="url(#filter15_f_380_6)">
<circle cx="225.484" cy="46.0208" r="1.04749" transform="rotate(-60.5335 225.484 46.0208)" fill="#244B99"/>
</g>
<g opacity="0.5" filter="url(#filter16_f_380_6)">
<circle cx="225.184" cy="89.7615" r="1.04749" transform="rotate(-60.5335 225.184 89.7615)" fill="#244B99"/>
</g>
<g opacity="0.8" filter="url(#filter17_f_380_6)">
<circle cx="225.184" cy="78.8259" r="1.04749" transform="rotate(-60.5335 225.184 78.8259)" fill="#244B99"/>
</g>
<g opacity="0.8" filter="url(#filter18_f_380_6)">
<circle cx="225.484" cy="56.9558" r="1.04749" transform="rotate(-60.5335 225.484 56.9558)" fill="#244B99"/>
</g>
<g opacity="0.5" filter="url(#filter19_f_380_6)">
<circle cx="215.676" cy="19.9025" r="1.04749" fill="#244B99"/>
</g>
<g opacity="0.8" filter="url(#filter20_f_380_6)">
<circle cx="215.676" cy="30.0783" r="1.04749" fill="#244B99"/>
</g>
<g opacity="0.8" filter="url(#filter21_f_380_6)">
<circle cx="215.607" cy="73.4392" r="1.04749" transform="rotate(-60.5335 215.607 73.4392)" fill="#244B99"/>
</g>
<g opacity="0.8" filter="url(#filter22_f_380_6)">
<circle cx="215.607" cy="62.5037" r="1.04749" transform="rotate(-60.5335 215.607 62.5037)" fill="#244B99"/>
</g>
<g opacity="0.8" filter="url(#filter23_f_380_6)">
<circle cx="215.607" cy="40.6336" r="1.04749" transform="rotate(-60.5335 215.607 40.6336)" fill="#244B99"/>
</g>
<circle opacity="0.5" cx="215.607" cy="95.3093" r="1.04749" transform="rotate(-60.5335 215.607 95.3093)" fill="#244B99"/>
<g opacity="0.8" filter="url(#filter24_f_380_6)">
<circle cx="215.607" cy="84.3738" r="1.04749" transform="rotate(-60.5335 215.607 84.3738)" fill="#244B99"/>
</g>
<g opacity="0.8" filter="url(#filter25_f_380_6)">
<circle cx="215.607" cy="51.5686" r="1.04749" transform="rotate(-60.5335 215.607 51.5686)" fill="#244B99"/>
</g>
<g opacity="0.5" filter="url(#filter26_f_380_6)">
<circle cx="148.487" cy="91.3444" r="1.04749" fill="#244B99"/>
</g>
<g opacity="0.8" filter="url(#filter27_f_380_6)">
<circle cx="148.637" cy="80.57" r="1.04749" fill="#244B99"/>
</g>
<g opacity="0.5" filter="url(#filter28_f_380_6)">
<circle cx="148.568" cy="24.4719" r="1.04749" transform="rotate(-60.5335 148.568 24.4719)" fill="#244B99"/>
</g>
<g opacity="0.8" filter="url(#filter29_f_380_6)">
<circle cx="148.568" cy="35.3762" r="1.04749" transform="rotate(-60.5335 148.568 35.3762)" fill="#244B99"/>
</g>
<g opacity="0.8" filter="url(#filter30_f_380_6)">
<circle cx="148.568" cy="67.1829" r="1.04749" transform="rotate(-60.5335 148.568 67.1829)" fill="#244B99"/>
</g>
<g opacity="0.8" filter="url(#filter31_f_380_6)">
<circle cx="148.568" cy="45.1853" r="1.04749" transform="rotate(-60.5335 148.568 45.1853)" fill="#244B99"/>
</g>
<g opacity="0.8" filter="url(#filter32_f_380_6)">
<circle cx="148.568" cy="55.9597" r="1.04749" transform="rotate(-60.5335 148.568 55.9597)" fill="#244B99"/>
</g>
<circle opacity="0.5" cx="158.064" cy="97.1657" r="1.04749" fill="#244B99"/>
<g opacity="0.8" filter="url(#filter33_f_380_6)">
<circle cx="158.064" cy="86.3912" r="1.04749" fill="#244B99"/>
</g>
<g opacity="0.5" filter="url(#filter34_f_380_6)">
<circle cx="158.145" cy="18.7859" r="1.04749" transform="rotate(-60.5335 158.145 18.7859)" fill="#244B99"/>
</g>
<g opacity="0.8" filter="url(#filter35_f_380_6)">
<circle cx="158.145" cy="29.6897" r="1.04749" transform="rotate(-60.5335 158.145 29.6897)" fill="#244B99"/>
</g>
<g opacity="0.8" filter="url(#filter36_f_380_6)">
<circle cx="158.145" cy="62.9778" r="1.04749" transform="rotate(-60.5335 158.145 62.9778)" fill="#244B99"/>
</g>
<g opacity="0.8" filter="url(#filter37_f_380_6)">
<circle cx="158.145" cy="74.051" r="1.04749" transform="rotate(-60.5335 158.145 74.051)" fill="#244B99"/>
</g>
<g opacity="0.8" filter="url(#filter38_f_380_6)">
<circle cx="158.145" cy="40.9802" r="1.04749" transform="rotate(-60.5335 158.145 40.9802)" fill="#244B99"/>
</g>
<g opacity="0.8" filter="url(#filter39_f_380_6)">
<circle cx="158.145" cy="51.7547" r="1.04749" transform="rotate(-60.5335 158.145 51.7547)" fill="#244B99"/>
</g>
<circle cx="167.791" cy="82.5061" r="1.7957" fill="#244B99"/>
<circle opacity="0.5" cx="167.641" cy="102.706" r="1.04749" fill="#244B99"/>
<g opacity="0.8" filter="url(#filter40_f_380_6)">
<circle cx="167.641" cy="91.9323" r="1.04749" fill="#244B99"/>
</g>
<circle cx="167.843" cy="59.2306" r="1.7957" transform="rotate(-60.5335 167.843 59.2306)" fill="#244B99"/>
<circle cx="167.843" cy="71.2018" r="1.7957" transform="rotate(-60.5335 167.843 71.2018)" fill="#244B99"/>
<circle cx="167.843" cy="35.3678" r="1.7957" transform="rotate(-60.5335 167.843 35.3678)" fill="#244B99"/>
<g opacity="0.5" filter="url(#filter41_f_380_6)">
<circle cx="167.722" cy="13.2488" r="1.04749" transform="rotate(-60.5335 167.722 13.2488)" fill="#244B99"/>
</g>
<g opacity="0.8" filter="url(#filter42_f_380_6)">
<circle cx="167.722" cy="24.1531" r="1.04749" transform="rotate(-60.5335 167.722 24.1531)" fill="#244B99"/>
</g>
<circle cx="167.843" cy="47.2589" r="1.7957" transform="rotate(-60.5335 167.843 47.2589)" fill="#244B99"/>
<g opacity="0.5" filter="url(#filter43_f_380_6)">
<circle cx="206.099" cy="12.8693" r="1.04749" fill="#244B99"/>
</g>
<g opacity="0.8" filter="url(#filter44_f_380_6)">
<circle cx="206.099" cy="24.3917" r="1.04749" fill="#244B99"/>
</g>
<circle opacity="0.5" cx="206.03" cy="102.219" r="1.04749" transform="rotate(-60.5335 206.03 102.219)" fill="#244B99"/>
<g opacity="0.8" filter="url(#filter45_f_380_6)">
<circle cx="206.03" cy="90.9949" r="1.04749" transform="rotate(-60.5335 206.03 90.9949)" fill="#244B99"/>
</g>
<circle opacity="0.8" cx="206.03" cy="79.989" r="1.04749" transform="rotate(-60.5335 206.03 79.989)" fill="#244B99"/>
<circle cx="206.9" cy="56.9601" r="1.7957" transform="rotate(-60.5335 206.9 56.9601)" fill="#244B99"/>
<circle opacity="0.8" cx="206.03" cy="68.3172" r="1.04749" transform="rotate(-60.5335 206.03 68.3172)" fill="#244B99"/>
<circle cx="207.049" cy="34.963" r="1.7957" transform="rotate(-60.5335 207.049 34.963)" fill="#244B99"/>
<circle cx="206.9" cy="45.7374" r="1.7957" transform="rotate(-60.5335 206.9 45.7374)" fill="#244B99"/>
<g opacity="0.5" filter="url(#filter46_f_380_6)">
<circle cx="196.373" cy="7.18274" r="1.04749" fill="#244B99"/>
</g>
<g opacity="0.8" filter="url(#filter47_f_380_6)">
<circle cx="196.373" cy="18.7052" r="1.04749" fill="#244B99"/>
</g>
<circle opacity="0.5" cx="196.453" cy="107.889" r="1.04749" transform="rotate(-60.5335 196.453 107.889)" fill="#244B99"/>
<g opacity="0.8" filter="url(#filter48_f_380_6)">
<circle cx="196.453" cy="96.6668" r="1.04749" transform="rotate(-60.5335 196.453 96.6668)" fill="#244B99"/>
</g>
<circle opacity="0.8" cx="196.453" cy="85.6609" r="1.04749" transform="rotate(-60.5335 196.453 85.6609)" fill="#244B99"/>
<circle cx="197.472" cy="63.8155" r="1.7957" transform="rotate(-60.5335 197.472 63.8155)" fill="#244B99"/>
<circle opacity="0.8" cx="196.603" cy="75.2005" r="1.04749" transform="rotate(-60.5335 196.603 75.2005)" fill="#244B99"/>
<circle cx="197.623" cy="30.773" r="1.7957" transform="rotate(-60.5335 197.623 30.773)" fill="#244B99"/>
<circle cx="178.265" cy="87.0916" r="1.7957" fill="#244B99"/>
<circle opacity="0.5" cx="177.218" cy="108.321" r="1.04749" fill="#244B99"/>
<g opacity="0.8" filter="url(#filter49_f_380_6)">
<circle cx="177.218" cy="97.5465" r="1.04749" fill="#244B99"/>
</g>
<circle cx="178.319" cy="64.4142" r="1.7957" transform="rotate(-60.5335 178.319 64.4142)" fill="#244B99"/>
<circle cx="178.319" cy="76.086" r="1.7957" transform="rotate(-60.5335 178.319 76.086)" fill="#244B99"/>
<circle cx="178.319" cy="31.3517" r="1.7957" transform="rotate(-60.5335 178.319 31.3517)" fill="#244B99"/>
<g opacity="0.5" filter="url(#filter50_f_380_6)">
<circle cx="177.299" cy="7.71217" r="1.04749" transform="rotate(-60.5335 177.299 7.71217)" fill="#244B99"/>
</g>
<g opacity="0.8" filter="url(#filter51_f_380_6)">
<circle cx="177.299" cy="18.6165" r="1.04749" transform="rotate(-60.5335 177.299 18.6165)" fill="#244B99"/>
</g>
<g opacity="0.5" filter="url(#filter52_f_380_6)">
<circle cx="186.945" cy="1.64612" r="1.04749" fill="#244B99"/>
</g>
<g opacity="0.8" filter="url(#filter53_f_380_6)">
<circle cx="186.945" cy="13.1686" r="1.04749" fill="#244B99"/>
</g>
<circle opacity="0.8" cx="186.796" cy="91.7164" r="1.04749" fill="#244B99"/>
<circle opacity="0.5" cx="186.796" cy="113.878" r="1.04749" fill="#244B99"/>
<g opacity="0.8" filter="url(#filter54_f_380_6)">
<circle cx="186.876" cy="102.693" r="1.04749" transform="rotate(-60.5335 186.876 102.693)" fill="#244B99"/>
</g>
<circle cx="187.895" cy="68.4542" r="1.7957" transform="rotate(-60.5335 187.895 68.4542)" fill="#244B99"/>
<circle opacity="0.8" cx="186.876" cy="80.7376" r="1.04749" transform="rotate(-60.5335 186.876 80.7376)" fill="#244B99"/>
<circle cx="188.045" cy="24.4879" r="1.7957" transform="rotate(-60.5335 188.045 24.4879)" fill="#244B99"/>
<circle cx="196.588" cy="53.9189" r="2.24462" transform="rotate(-60.5335 196.588 53.9189)" fill="#244B99"/>
<circle cx="196.588" cy="41.4985" r="2.24462" transform="rotate(-60.5335 196.588 41.4985)" fill="#244B99"/>
<circle cx="177.433" cy="53.9189" r="2.24462" transform="rotate(-60.5335 177.433 53.9189)" fill="#244B99"/>
<circle cx="177.433" cy="42.0972" r="2.24462" transform="rotate(-60.5335 177.433 42.0972)" fill="#244B99"/>
<circle cx="187.011" cy="46.7358" r="2.24462" transform="rotate(-60.5335 187.011 46.7358)" fill="#244B99"/>
<circle cx="187.011" cy="58.5576" r="2.24462" transform="rotate(-60.5335 187.011 58.5576)" fill="#244B99"/>
<circle cx="187.011" cy="34.9145" r="2.24462" transform="rotate(-60.5335 187.011 34.9145)" fill="#244B99"/>
<path d="M253.488 111.012V4.51172" stroke="#244B99" stroke-width="0.5"/>
<path d="M306.79 62.5632V65.5963H281.528C281.694 66.4273 281.958 67.2029 282.318 67.923C282.705 68.6155 283.135 69.2111 283.606 69.7097C284.132 70.2636 284.686 70.7207 285.268 71.0808C285.849 71.4409 286.556 71.7179 287.387 71.9118C287.747 72.0226 288.121 72.1057 288.509 72.1611C288.924 72.2165 289.353 72.2442 289.797 72.2442C291.126 72.2442 292.345 72.0226 293.453 71.5794C294.561 71.1362 295.461 70.5129 296.154 69.7097C296.32 69.5158 296.472 69.308 296.611 69.0864C296.749 68.8648 296.874 68.6432 296.985 68.4216H306.499C306.111 70.139 305.544 71.6348 304.796 72.9089C304.048 74.1831 303.217 75.2495 302.303 76.1082C301.25 77.1608 300.059 78.061 298.73 78.8089C297.428 79.5568 296.001 80.1385 294.45 80.554C293.702 80.7479 292.927 80.9002 292.123 81.011C291.32 81.1218 290.503 81.1772 289.672 81.1772C287.539 81.1772 285.6 80.8725 283.855 80.2631C282.138 79.626 280.6 78.7812 279.243 77.7286C276.279 75.4573 274.243 72.4242 273.135 68.6294C272.581 66.7458 272.304 64.7238 272.304 62.5632C272.304 60.4858 272.595 58.4914 273.177 56.5801C273.759 54.6689 274.576 52.9654 275.628 51.4696C276.709 49.9461 277.969 48.6443 279.409 47.564C280.877 46.4837 282.484 45.6527 284.229 45.071C286.002 44.4894 287.844 44.1985 289.755 44.1985C291.611 44.1985 293.425 44.5171 295.198 45.1541C296.971 45.7635 298.536 46.6222 299.893 47.7302C301.306 48.8936 302.524 50.2231 303.549 51.7189C304.602 53.2147 305.405 54.9043 305.959 56.7879C306.513 58.6161 306.79 60.5412 306.79 62.5632ZM281.694 59.3639H297.608C297.165 57.8959 296.417 56.6355 295.364 55.583C294.339 54.5581 293.134 53.8379 291.749 53.4224C291.389 53.3393 291.029 53.2701 290.669 53.2147C290.309 53.1593 289.935 53.1316 289.547 53.1316C288.135 53.1316 286.777 53.5055 285.475 54.2534C285.005 54.5304 284.506 54.9182 283.98 55.4168C283.481 55.9154 283.024 56.5386 282.609 57.2865C282.221 57.979 281.916 58.6715 281.694 59.3639ZM309.901 44.614H319.25C319.25 44.7802 319.222 45.0018 319.167 45.2788C319.139 45.5281 319.056 45.8328 318.918 46.1929C318.779 46.5807 318.668 46.8992 318.585 47.1485C318.502 47.3978 318.336 47.7302 318.087 48.1457C318.003 48.3119 317.92 48.4781 317.837 48.6443C317.754 48.7828 317.671 48.9213 317.588 49.0598L318.087 49.4753C320.386 45.9574 323.391 44.1985 327.103 44.1985C329.208 44.1985 330.87 44.7525 332.089 45.8605C333.335 46.9962 334.152 48.6581 334.54 50.8464C334.623 51.4004 334.692 51.9959 334.748 52.633C334.803 53.2424 334.831 53.8933 334.831 54.5858V70.6653C334.831 72.0226 334.72 73.2967 334.498 74.4878C334.305 75.6512 333.986 76.6345 333.543 77.4378C333.1 78.2688 332.573 78.9613 331.964 79.5152C331.355 80.0415 330.607 80.457 329.72 80.7617C328.862 81.0387 327.878 81.1772 326.77 81.1772C325.524 81.1772 324.43 81.0249 323.488 80.7202C322.823 80.5263 322.297 80.3462 321.909 80.18C321.549 80.0138 321.092 79.7645 320.538 79.4321C320.067 79.1829 319.638 78.892 319.25 78.5596V93.2264H309.901V44.614ZM318.834 56.9125V68.4632C318.834 69.3773 319.015 70.1529 319.375 70.7899C319.485 71.0115 319.679 71.2608 319.956 71.5378C320.261 71.7871 320.607 71.9672 320.995 72.078C321.327 72.1888 321.715 72.2442 322.158 72.2442C322.546 72.2442 322.92 72.2026 323.28 72.1195C323.64 72.0087 323.973 71.8287 324.277 71.5794C324.527 71.3578 324.734 71.1223 324.901 70.873C325.095 70.596 325.247 70.2221 325.358 69.7512C325.441 69.308 325.482 68.8787 325.482 68.4632V56.9125C325.482 55.9985 325.302 55.209 324.942 54.5442C324.831 54.3503 324.624 54.1288 324.319 53.8795C324.042 53.6025 323.723 53.4086 323.363 53.2978C323.003 53.187 322.602 53.1316 322.158 53.1316C321.771 53.1316 321.397 53.187 321.037 53.2978C320.676 53.3809 320.358 53.5471 320.081 53.7964C319.804 54.018 319.569 54.2672 319.375 54.5442C319.208 54.7935 319.084 55.1536 319.001 55.6245C318.89 56.0677 318.834 56.497 318.834 56.9125ZM338.588 44.614H347.937C347.937 44.7802 347.909 45.0018 347.854 45.2788C347.826 45.5281 347.743 45.8328 347.604 46.1929C347.466 46.5807 347.355 46.8992 347.272 47.1485C347.189 47.3978 347.023 47.7302 346.773 48.1457C346.69 48.3119 346.607 48.4781 346.524 48.6443C346.441 48.7828 346.358 48.9213 346.275 49.0598L346.773 49.4753C349.072 45.9574 352.078 44.1985 355.789 44.1985C357.895 44.1985 359.557 44.7525 360.775 45.8605C362.022 46.9962 362.839 48.6581 363.227 50.8464C363.31 51.4004 363.379 51.9959 363.435 52.633C363.49 53.2424 363.518 53.8933 363.518 54.5858V70.6653C363.518 72.0226 363.407 73.2967 363.185 74.4878C362.991 75.6512 362.673 76.6345 362.23 77.4378C361.786 78.2688 361.26 78.9613 360.651 79.5152C360.041 80.0415 359.293 80.457 358.407 80.7617C357.548 81.0387 356.565 81.1772 355.457 81.1772C354.211 81.1772 353.116 81.0249 352.175 80.7202C351.51 80.5263 350.984 80.3462 350.596 80.18C350.236 80.0138 349.779 79.7645 349.225 79.4321C348.754 79.1829 348.324 78.892 347.937 78.5596V93.2264H338.588V44.614ZM347.521 56.9125V68.4632C347.521 69.3773 347.701 70.1529 348.061 70.7899C348.172 71.0115 348.366 71.2608 348.643 71.5378C348.948 71.7871 349.294 71.9672 349.682 72.078C350.014 72.1888 350.402 72.2442 350.845 72.2442C351.233 72.2442 351.607 72.2026 351.967 72.1195C352.327 72.0087 352.659 71.8287 352.964 71.5794C353.213 71.3578 353.421 71.1223 353.587 70.873C353.781 70.596 353.934 70.2221 354.044 69.7512C354.128 69.308 354.169 68.8787 354.169 68.4632V56.9125C354.169 55.9985 353.989 55.209 353.629 54.5442C353.518 54.3503 353.31 54.1288 353.006 53.8795C352.729 53.6025 352.41 53.4086 352.05 53.2978C351.69 53.187 351.288 53.1316 350.845 53.1316C350.457 53.1316 350.083 53.187 349.723 53.2978C349.363 53.3809 349.045 53.5471 348.768 53.7964C348.491 54.018 348.255 54.2672 348.061 54.5442C347.895 54.7935 347.771 55.1536 347.687 55.6245C347.577 56.0677 347.521 56.497 347.521 56.9125ZM367.275 80.7617V44.614H376.623V80.7617H367.275ZM366.776 36.6781C366.776 35.4871 367.109 34.4206 367.773 33.4789C368.05 33.0357 368.411 32.6479 368.854 32.3155C369.325 31.9831 369.809 31.7476 370.308 31.6091C370.834 31.4429 371.388 31.3598 371.97 31.3598C372.524 31.3598 373.064 31.4429 373.59 31.6091C374.117 31.7476 374.615 31.9831 375.086 32.3155C375.972 32.9803 376.582 33.8528 376.914 34.9331C377.08 35.4871 377.164 36.0687 377.164 36.6781C377.164 38.2016 376.679 39.4896 375.709 40.5422C374.74 41.5948 373.493 42.1211 371.97 42.1211C370.779 42.1211 369.754 41.7748 368.895 41.0823C368.452 40.7499 368.078 40.376 367.773 39.9605C367.469 39.5173 367.219 38.991 367.026 38.3816C366.859 37.8554 366.776 37.2875 366.776 36.6781ZM390.135 30.9028V51.0126C390.135 51.3173 390.107 51.7051 390.052 52.1759C390.024 52.6468 389.983 53.0623 389.927 53.4224C389.844 53.8379 389.733 54.3226 389.595 54.8766C389.484 55.4306 389.359 55.9846 389.221 56.5386C389.138 56.8156 389.055 57.1064 388.972 57.4111C388.861 57.7158 388.764 58.0205 388.681 58.3252H389.346C389.484 57.8266 389.567 57.5081 389.595 57.3696C389.65 57.2311 389.706 57.0787 389.761 56.9125C389.816 56.7186 389.955 56.3032 390.177 55.6661C390.37 55.1398 390.564 54.655 390.758 54.2118C390.952 53.7687 391.16 53.2978 391.381 52.7992C391.492 52.5776 391.603 52.356 391.714 52.1344C391.825 51.9128 391.935 51.6912 392.046 51.4696L395.744 44.614H405.093L397.281 57.4942L405.716 80.7617H396.367L391.215 66.5104L390.135 68.0892V80.7617H380.786V30.9028H390.135ZM409.863 80.7617V47.107H417.217C419.461 47.107 421.206 47.5363 422.452 48.395C423.699 49.2537 424.571 50.417 425.07 51.8851C425.568 53.3532 425.818 54.9874 425.818 56.7879V70.7484C425.818 72.6596 425.568 74.377 425.07 75.9005C424.571 77.3962 423.712 78.5873 422.494 79.4737C421.303 80.3324 419.613 80.7617 417.425 80.7617H409.863ZM412.106 78.9751H417.3C419.128 78.9751 420.485 78.5873 421.372 77.8117C422.258 77.0362 422.84 76.0113 423.117 74.7371C423.394 73.4352 423.532 72.0226 423.532 70.4991V56.9541C423.532 55.3198 423.366 53.9072 423.034 52.7161C422.701 51.4973 422.078 50.5694 421.164 49.9323C420.25 49.2675 418.934 48.9351 417.217 48.9351H412.106V78.9751ZM436.23 81.1357C434.956 81.1357 433.862 80.8864 432.947 80.3878C432.033 79.8615 431.327 78.9336 430.828 77.604C430.358 76.2467 430.122 74.3355 430.122 71.8702V65.4717C430.122 62.951 430.371 61.0397 430.87 59.7379C431.369 58.436 432.075 57.5496 432.989 57.0787C433.931 56.6078 435.025 56.3724 436.271 56.3724C437.767 56.3724 438.944 56.6909 439.803 57.328C440.662 57.9651 441.271 58.99 441.631 60.4027C441.991 61.7876 442.171 63.6296 442.171 65.9287V68.2139H432.324V72.0364C432.324 73.9477 432.449 75.4434 432.698 76.5237C432.975 77.604 433.404 78.3657 433.986 78.8089C434.568 79.2521 435.316 79.4737 436.23 79.4737C436.811 79.4737 437.393 79.3767 437.975 79.1829C438.557 78.989 439.041 78.5319 439.429 77.8117C439.817 77.0915 440.011 75.9697 440.011 74.4463V72.6596H442.171V74.2385C442.171 76.2883 441.742 77.9502 440.883 79.2244C440.052 80.4986 438.501 81.1357 436.23 81.1357ZM432.324 66.8843H440.011V65.0146C440.011 63.5742 439.928 62.3416 439.761 61.3167C439.623 60.2642 439.291 59.4609 438.764 58.9069C438.238 58.3252 437.407 58.0344 436.271 58.0344C435.385 58.0344 434.637 58.2283 434.028 58.6161C433.446 58.9761 433.017 59.6686 432.74 60.6935C432.463 61.6907 432.324 63.1449 432.324 65.0562V66.8843ZM451.765 81.1357C449.882 81.1357 448.386 80.5263 447.278 79.3075C446.17 78.061 445.533 76.3852 445.367 74.2801L447.236 73.7399C447.375 75.762 447.832 77.23 448.608 78.1441C449.411 79.0305 450.491 79.4737 451.848 79.4737C453.067 79.4737 454.009 79.1413 454.674 78.4765C455.339 77.784 455.671 76.8146 455.671 75.5681C455.671 74.7094 455.38 73.823 454.798 72.9089C454.244 71.9672 453.358 70.9838 452.139 69.959L449.355 67.5907C448.164 66.5658 447.292 65.5963 446.738 64.6822C446.184 63.7404 445.907 62.674 445.907 61.4829C445.907 60.375 446.128 59.447 446.572 58.6992C447.043 57.9513 447.68 57.3834 448.483 56.9956C449.314 56.5801 450.27 56.3724 451.35 56.3724C453.15 56.3724 454.494 56.9402 455.38 58.0759C456.266 59.2116 456.737 60.7351 456.793 62.6463L455.172 63.1449C455.145 61.8984 454.965 60.9013 454.632 60.1534C454.327 59.4055 453.898 58.8653 453.344 58.533C452.818 58.2006 452.195 58.0344 451.474 58.0344C450.422 58.0344 449.563 58.3114 448.898 58.8653C448.261 59.3916 447.943 60.1811 447.943 61.2336C447.943 62.12 448.109 62.8956 448.441 63.5604C448.801 64.1975 449.452 64.9454 450.394 65.804L453.261 68.3385C453.981 68.9479 454.674 69.5989 455.339 70.2913C456.003 70.9838 456.543 71.7594 456.959 72.6181C457.402 73.4491 457.624 74.4463 457.624 75.6096C457.624 76.773 457.374 77.7702 456.876 78.6012C456.405 79.4044 455.726 80.0277 454.84 80.4709C453.981 80.9141 452.956 81.1357 451.765 81.1357ZM461.465 80.7617V56.7463H463.708V80.7617H461.465ZM461.465 53.5886V49.7661H463.708V53.5886H461.465ZM469.004 80.7617V56.7463H471.206V59.3224C471.954 58.436 472.813 57.7297 473.782 57.2034C474.752 56.6494 475.79 56.3724 476.898 56.3724C477.618 56.3724 478.256 56.5524 478.81 56.9125C479.391 57.2449 479.848 57.7989 480.181 58.5745C480.513 59.3224 480.679 60.3334 480.679 61.6076V80.7617H478.477V61.8569C478.477 60.3888 478.242 59.3916 477.771 58.8653C477.328 58.3391 476.718 58.0759 475.943 58.0759C475.139 58.0759 474.322 58.3252 473.491 58.8238C472.688 59.2947 471.926 59.9318 471.206 60.7351V80.7617H469.004ZM491.259 88.9053C489.597 88.9053 488.184 88.753 487.021 88.4483C485.857 88.1436 484.971 87.6727 484.362 87.0356C483.78 86.3985 483.489 85.6091 483.489 84.6673C483.489 83.8087 483.724 83.0054 484.195 82.2575C484.666 81.5096 485.248 80.8448 485.94 80.2631C486.661 79.6814 487.381 79.2244 488.101 78.892L489.472 79.3075C489.029 79.5568 488.475 79.9169 487.81 80.3878C487.173 80.831 486.605 81.3573 486.107 81.9666C485.636 82.6037 485.4 83.3239 485.4 84.1272C485.4 85.1798 485.899 85.9415 486.896 86.4124C487.921 86.8833 489.375 87.1187 491.259 87.1187C492.893 87.1187 494.278 86.8417 495.414 86.2877C496.549 85.7338 497.117 84.8474 497.117 83.6286C497.117 83.0469 496.979 82.5206 496.702 82.0497C496.452 81.5789 495.954 81.1634 495.206 80.8033C494.458 80.4432 493.336 80.1385 491.84 79.8892L488.35 79.1829C487.104 78.9336 486.204 78.6012 485.65 78.1857C485.123 77.7425 484.86 77.1469 484.86 76.3991C484.86 75.5958 485.165 74.834 485.774 74.1139C486.384 73.3937 487.173 72.6319 488.142 71.8287L489.14 72.4519C488.558 73.0336 488.018 73.6291 487.519 74.2385C487.021 74.8479 486.771 75.4296 486.771 75.9836C486.771 76.4268 486.924 76.7592 487.228 76.9808C487.561 77.2023 488.073 77.3824 488.766 77.5209L492.671 78.2272C494.638 78.5873 496.175 79.1829 497.283 80.0138C498.419 80.8448 498.987 82.0359 498.987 83.5871C498.987 84.8335 498.627 85.8446 497.907 86.6201C497.186 87.4234 496.245 88.0051 495.081 88.3652C493.918 88.7253 492.644 88.9053 491.259 88.9053ZM491.466 73.1167C489.915 73.1167 488.627 72.7427 487.602 71.9949C486.605 71.2193 485.871 70.1944 485.4 68.9202C484.929 67.6184 484.694 66.1918 484.694 64.6407C484.694 63.3111 484.916 62.0231 485.359 60.7766C485.83 59.5024 486.55 58.4499 487.519 57.6189C488.516 56.7879 489.804 56.3724 491.383 56.3724C492.879 56.3724 494.126 56.774 495.123 57.5773C496.12 58.3529 496.854 59.3778 497.325 60.652C497.823 61.9261 498.073 63.2696 498.073 64.6822C498.073 66.2611 497.851 67.6876 497.408 68.9618C496.965 70.2359 496.258 71.247 495.289 71.9949C494.319 72.7427 493.045 73.1167 491.466 73.1167ZM491.466 71.4963C492.491 71.4963 493.308 71.2747 493.918 70.8315C494.527 70.3606 494.984 69.7789 495.289 69.0864C495.594 68.3662 495.788 67.6184 495.871 66.8428C495.981 66.0395 496.037 65.3055 496.037 64.6407C496.037 64.0036 495.968 63.3111 495.829 62.5632C495.718 61.7876 495.497 61.0536 495.164 60.3611C494.832 59.6686 494.361 59.1008 493.752 58.6576C493.17 58.2144 492.394 57.9928 491.425 57.9928C490.455 57.9928 489.666 58.2283 489.057 58.6992C488.447 59.17 487.962 59.7656 487.602 60.4858C487.27 61.2059 487.035 61.94 486.896 62.6879C486.785 63.4357 486.73 64.0867 486.73 64.6407C486.73 65.2778 486.785 65.9979 486.896 66.8012C487.007 67.5768 487.228 68.3247 487.561 69.0449C487.893 69.7651 488.364 70.3606 488.973 70.8315C489.611 71.2747 490.442 71.4963 491.466 71.4963ZM497.117 60.8182L496.619 59.7794C496.923 59.1146 497.408 58.5053 498.073 57.9513C498.738 57.3696 499.555 56.8987 500.524 56.5386L501.147 58.2006C500.649 58.3114 500.136 58.5053 499.61 58.7822C499.084 59.0592 498.599 59.3778 498.156 59.7379C497.74 60.0703 497.394 60.4304 497.117 60.8182ZM508.49 81.1357C506.606 81.1357 505.11 80.5263 504.002 79.3075C502.894 78.061 502.257 76.3852 502.091 74.2801L503.961 73.7399C504.099 75.762 504.556 77.23 505.332 78.1441C506.135 79.0305 507.215 79.4737 508.573 79.4737C509.791 79.4737 510.733 79.1413 511.398 78.4765C512.063 77.784 512.395 76.8146 512.395 75.5681C512.395 74.7094 512.104 73.823 511.523 72.9089C510.969 71.9672 510.082 70.9838 508.863 69.959L506.08 67.5907C504.889 66.5658 504.016 65.5963 503.462 64.6822C502.908 63.7404 502.631 62.674 502.631 61.4829C502.631 60.375 502.853 59.447 503.296 58.6992C503.767 57.9513 504.404 57.3834 505.207 56.9956C506.038 56.5801 506.994 56.3724 508.074 56.3724C509.874 56.3724 511.218 56.9402 512.104 58.0759C512.991 59.2116 513.462 60.7351 513.517 62.6463L511.897 63.1449C511.869 61.8984 511.689 60.9013 511.356 60.1534C511.052 59.4055 510.622 58.8653 510.068 58.533C509.542 58.2006 508.919 58.0344 508.199 58.0344C507.146 58.0344 506.287 58.3114 505.623 58.8653C504.986 59.3916 504.667 60.1811 504.667 61.2336C504.667 62.12 504.833 62.8956 505.166 63.5604C505.526 64.1975 506.177 64.9454 507.118 65.804L509.985 68.3385C510.705 68.9479 511.398 69.5989 512.063 70.2913C512.728 70.9838 513.268 71.7594 513.683 72.6181C514.126 73.4491 514.348 74.4463 514.348 75.6096C514.348 76.773 514.099 77.7702 513.6 78.6012C513.129 79.4044 512.451 80.0277 511.564 80.4709C510.705 80.9141 509.681 81.1357 508.49 81.1357Z" fill="#244B99"/>
<defs>
<filter id="filter0_f_380_6" x="137.345" y="28.213" width="3.29186" height="3.29235" filterUnits="userSpaceOnUse" color-interpolation-filters="sRGB">
<feFlood flood-opacity="0" result="BackgroundImageFix"/>
<feBlend mode="normal" in="SourceGraphic" in2="BackgroundImageFix" result="shape"/>
<feGaussianBlur stdDeviation="0.299283" result="effect1_foregroundBlur_380_6"/>
</filter>
<filter id="filter1_f_380_6" x="137.345" y="50.0821" width="3.29186" height="3.29235" filterUnits="userSpaceOnUse" color-interpolation-filters="sRGB">
<feFlood flood-opacity="0" result="BackgroundImageFix"/>
<feBlend mode="normal" in="SourceGraphic" in2="BackgroundImageFix" result="shape"/>
<feGaussianBlur stdDeviation="0.299283" result="effect1_foregroundBlur_380_6"/>
</filter>
<filter id="filter2_f_380_6" x="137.345" y="73.1265" width="3.29186" height="3.29235" filterUnits="userSpaceOnUse" color-interpolation-filters="sRGB">
<feFlood flood-opacity="0" result="BackgroundImageFix"/>
<feBlend mode="normal" in="SourceGraphic" in2="BackgroundImageFix" result="shape"/>
<feGaussianBlur stdDeviation="0.299283" result="effect1_foregroundBlur_380_6"/>
</filter>
<filter id="filter3_f_380_6" x="137.345" y="39.1173" width="3.29186" height="3.29235" filterUnits="userSpaceOnUse" color-interpolation-filters="sRGB">
<feFlood flood-opacity="0" result="BackgroundImageFix"/>
<feBlend mode="normal" in="SourceGraphic" in2="BackgroundImageFix" result="shape"/>
<feGaussianBlur stdDeviation="0.299283" result="effect1_foregroundBlur_380_6"/>
</filter>
<filter id="filter4_f_380_6" x="137.345" y="60.9859" width="3.29186" height="3.29235" filterUnits="userSpaceOnUse" color-interpolation-filters="sRGB">
<feFlood flood-opacity="0" result="BackgroundImageFix"/>
<feBlend mode="normal" in="SourceGraphic" in2="BackgroundImageFix" result="shape"/>
<feGaussianBlur stdDeviation="0.299283" result="effect1_foregroundBlur_380_6"/>
</filter>
<filter id="filter5_f_380_6" x="137.345" y="84.0313" width="3.29186" height="3.29284" filterUnits="userSpaceOnUse" color-interpolation-filters="sRGB">
<feFlood flood-opacity="0" result="BackgroundImageFix"/>
<feBlend mode="normal" in="SourceGraphic" in2="BackgroundImageFix" result="shape"/>
<feGaussianBlur stdDeviation="0.299283" result="effect1_foregroundBlur_380_6"/>
</filter>
<filter id="filter6_f_380_6" x="233.483" y="29.1802" width="3.29186" height="3.29235" filterUnits="userSpaceOnUse" color-interpolation-filters="sRGB">
<feFlood flood-opacity="0" result="BackgroundImageFix"/>
<feBlend mode="normal" in="SourceGraphic" in2="BackgroundImageFix" result="shape"/>
<feGaussianBlur stdDeviation="0.299283" result="effect1_foregroundBlur_380_6"/>
</filter>
<filter id="filter7_f_380_6" x="233.483" y="39.356" width="3.29186" height="3.29235" filterUnits="userSpaceOnUse" color-interpolation-filters="sRGB">
<feFlood flood-opacity="0" result="BackgroundImageFix"/>
<feBlend mode="normal" in="SourceGraphic" in2="BackgroundImageFix" result="shape"/>
<feGaussianBlur stdDeviation="0.299283" result="effect1_foregroundBlur_380_6"/>
</filter>
<filter id="filter8_f_380_6" x="233.414" y="49.8829" width="3.29186" height="3.29235" filterUnits="userSpaceOnUse" color-interpolation-filters="sRGB">
<feFlood flood-opacity="0" result="BackgroundImageFix"/>
<feBlend mode="normal" in="SourceGraphic" in2="BackgroundImageFix" result="shape"/>
<feGaussianBlur stdDeviation="0.299283" result="effect1_foregroundBlur_380_6"/>
</filter>
<filter id="filter9_f_380_6" x="233.414" y="71.7305" width="3.29186" height="3.29235" filterUnits="userSpaceOnUse" color-interpolation-filters="sRGB">
<feFlood flood-opacity="0" result="BackgroundImageFix"/>
<feBlend mode="normal" in="SourceGraphic" in2="BackgroundImageFix" result="shape"/>
<feGaussianBlur stdDeviation="0.299283" result="effect1_foregroundBlur_380_6"/>
</filter>
<filter id="filter10_f_380_6" x="233.414" y="60.8067" width="3.29186" height="3.29235" filterUnits="userSpaceOnUse" color-interpolation-filters="sRGB">
<feFlood flood-opacity="0" result="BackgroundImageFix"/>
<feBlend mode="normal" in="SourceGraphic" in2="BackgroundImageFix" result="shape"/>
<feGaussianBlur stdDeviation="0.299283" result="effect1_foregroundBlur_380_6"/>
</filter>
<filter id="filter11_f_380_6" x="233.414" y="82.6544" width="3.29186" height="3.29284" filterUnits="userSpaceOnUse" color-interpolation-filters="sRGB">
<feFlood flood-opacity="0" result="BackgroundImageFix"/>
<feBlend mode="normal" in="SourceGraphic" in2="BackgroundImageFix" result="shape"/>
<feGaussianBlur stdDeviation="0.299283" result="effect1_foregroundBlur_380_6"/>
</filter>
<filter id="filter12_f_380_6" x="222.74" y="22.9253" width="4.72842" height="4.72891" filterUnits="userSpaceOnUse" color-interpolation-filters="sRGB">
<feFlood flood-opacity="0" result="BackgroundImageFix"/>
<feBlend mode="normal" in="SourceGraphic" in2="BackgroundImageFix" result="shape"/>
<feGaussianBlur stdDeviation="0.658423" result="effect1_foregroundBlur_380_6"/>
</filter>
<filter id="filter13_f_380_6" x="222.74" y="33.1006" width="4.72842" height="4.72891" filterUnits="userSpaceOnUse" color-interpolation-filters="sRGB">
<feFlood flood-opacity="0" result="BackgroundImageFix"/>
<feBlend mode="normal" in="SourceGraphic" in2="BackgroundImageFix" result="shape"/>
<feGaussianBlur stdDeviation="0.658423" result="effect1_foregroundBlur_380_6"/>
</filter>
<filter id="filter14_f_380_6" x="222.82" y="65.5264" width="4.72842" height="4.72891" filterUnits="userSpaceOnUse" color-interpolation-filters="sRGB">
<feFlood flood-opacity="0" result="BackgroundImageFix"/>
<feBlend mode="normal" in="SourceGraphic" in2="BackgroundImageFix" result="shape"/>
<feGaussianBlur stdDeviation="0.658423" result="effect1_foregroundBlur_380_6"/>
</filter>
<filter id="filter15_f_380_6" x="223.12" y="43.6563" width="4.72842" height="4.72891" filterUnits="userSpaceOnUse" color-interpolation-filters="sRGB">
<feFlood flood-opacity="0" result="BackgroundImageFix"/>
<feBlend mode="normal" in="SourceGraphic" in2="BackgroundImageFix" result="shape"/>
<feGaussianBlur stdDeviation="0.658423" result="effect1_foregroundBlur_380_6"/>
</filter>
<filter id="filter16_f_380_6" x="222.82" y="87.397" width="4.72842" height="4.7294" filterUnits="userSpaceOnUse" color-interpolation-filters="sRGB">
<feFlood flood-opacity="0" result="BackgroundImageFix"/>
<feBlend mode="normal" in="SourceGraphic" in2="BackgroundImageFix" result="shape"/>
<feGaussianBlur stdDeviation="0.658423" result="effect1_foregroundBlur_380_6"/>
</filter>
<filter id="filter17_f_380_6" x="222.82" y="76.4615" width="4.72842" height="4.72891" filterUnits="userSpaceOnUse" color-interpolation-filters="sRGB">
<feFlood flood-opacity="0" result="BackgroundImageFix"/>
<feBlend mode="normal" in="SourceGraphic" in2="BackgroundImageFix" result="shape"/>
<feGaussianBlur stdDeviation="0.658423" result="effect1_foregroundBlur_380_6"/>
</filter>
<filter id="filter18_f_380_6" x="223.12" y="54.5914" width="4.72842" height="4.72891" filterUnits="userSpaceOnUse" color-interpolation-filters="sRGB">
<feFlood flood-opacity="0" result="BackgroundImageFix"/>
<feBlend mode="normal" in="SourceGraphic" in2="BackgroundImageFix" result="shape"/>
<feGaussianBlur stdDeviation="0.658423" result="effect1_foregroundBlur_380_6"/>
</filter>
<filter id="filter19_f_380_6" x="214.03" y="18.2564" width="3.29186" height="3.29235" filterUnits="userSpaceOnUse" color-interpolation-filters="sRGB">
<feFlood flood-opacity="0" result="BackgroundImageFix"/>
<feBlend mode="normal" in="SourceGraphic" in2="BackgroundImageFix" result="shape"/>
<feGaussianBlur stdDeviation="0.299283" result="effect1_foregroundBlur_380_6"/>
</filter>
<filter id="filter20_f_380_6" x="214.03" y="28.4322" width="3.29186" height="3.29235" filterUnits="userSpaceOnUse" color-interpolation-filters="sRGB">
<feFlood flood-opacity="0" result="BackgroundImageFix"/>
<feBlend mode="normal" in="SourceGraphic" in2="BackgroundImageFix" result="shape"/>
<feGaussianBlur stdDeviation="0.299283" result="effect1_foregroundBlur_380_6"/>
</filter>
<filter id="filter21_f_380_6" x="213.961" y="71.793" width="3.29186" height="3.29235" filterUnits="userSpaceOnUse" color-interpolation-filters="sRGB">
<feFlood flood-opacity="0" result="BackgroundImageFix"/>
<feBlend mode="normal" in="SourceGraphic" in2="BackgroundImageFix" result="shape"/>
<feGaussianBlur stdDeviation="0.299283" result="effect1_foregroundBlur_380_6"/>
</filter>
<filter id="filter22_f_380_6" x="213.961" y="60.8575" width="3.29186" height="3.29235" filterUnits="userSpaceOnUse" color-interpolation-filters="sRGB">
<feFlood flood-opacity="0" result="BackgroundImageFix"/>
<feBlend mode="normal" in="SourceGraphic" in2="BackgroundImageFix" result="shape"/>
<feGaussianBlur stdDeviation="0.299283" result="effect1_foregroundBlur_380_6"/>
</filter>
<filter id="filter23_f_380_6" x="213.961" y="38.9874" width="3.29186" height="3.29235" filterUnits="userSpaceOnUse" color-interpolation-filters="sRGB">
<feFlood flood-opacity="0" result="BackgroundImageFix"/>
<feBlend mode="normal" in="SourceGraphic" in2="BackgroundImageFix" result="shape"/>
<feGaussianBlur stdDeviation="0.299283" result="effect1_foregroundBlur_380_6"/>
</filter>
<filter id="filter24_f_380_6" x="213.961" y="82.7276" width="3.29186" height="3.29284" filterUnits="userSpaceOnUse" color-interpolation-filters="sRGB">
<feFlood flood-opacity="0" result="BackgroundImageFix"/>
<feBlend mode="normal" in="SourceGraphic" in2="BackgroundImageFix" result="shape"/>
<feGaussianBlur stdDeviation="0.299283" result="effect1_foregroundBlur_380_6"/>
</filter>
<filter id="filter25_f_380_6" x="213.961" y="49.9224" width="3.29186" height="3.29235" filterUnits="userSpaceOnUse" color-interpolation-filters="sRGB">
<feFlood flood-opacity="0" result="BackgroundImageFix"/>
<feBlend mode="normal" in="SourceGraphic" in2="BackgroundImageFix" result="shape"/>
<feGaussianBlur stdDeviation="0.299283" result="effect1_foregroundBlur_380_6"/>
</filter>
<filter id="filter26_f_380_6" x="146.123" y="88.98" width="4.72842" height="4.72842" filterUnits="userSpaceOnUse" color-interpolation-filters="sRGB">
<feFlood flood-opacity="0" result="BackgroundImageFix"/>
<feBlend mode="normal" in="SourceGraphic" in2="BackgroundImageFix" result="shape"/>
<feGaussianBlur stdDeviation="0.658423" result="effect1_foregroundBlur_380_6"/>
</filter>
<filter id="filter27_f_380_6" x="146.273" y="78.2056" width="4.72842" height="4.72891" filterUnits="userSpaceOnUse" color-interpolation-filters="sRGB">
<feFlood flood-opacity="0" result="BackgroundImageFix"/>
<feBlend mode="normal" in="SourceGraphic" in2="BackgroundImageFix" result="shape"/>
<feGaussianBlur stdDeviation="0.658423" result="effect1_foregroundBlur_380_6"/>
</filter>
<filter id="filter28_f_380_6" x="146.922" y="22.8258" width="3.29186" height="3.29235" filterUnits="userSpaceOnUse" color-interpolation-filters="sRGB">
<feFlood flood-opacity="0" result="BackgroundImageFix"/>
<feBlend mode="normal" in="SourceGraphic" in2="BackgroundImageFix" result="shape"/>
<feGaussianBlur stdDeviation="0.299283" result="effect1_foregroundBlur_380_6"/>
</filter>
<filter id="filter29_f_380_6" x="146.204" y="33.0118" width="4.72842" height="4.72891" filterUnits="userSpaceOnUse" color-interpolation-filters="sRGB">
<feFlood flood-opacity="0" result="BackgroundImageFix"/>
<feBlend mode="normal" in="SourceGraphic" in2="BackgroundImageFix" result="shape"/>
<feGaussianBlur stdDeviation="0.658423" result="effect1_foregroundBlur_380_6"/>
</filter>
<filter id="filter30_f_380_6" x="146.204" y="64.8184" width="4.72842" height="4.72891" filterUnits="userSpaceOnUse" color-interpolation-filters="sRGB">
<feFlood flood-opacity="0" result="BackgroundImageFix"/>
<feBlend mode="normal" in="SourceGraphic" in2="BackgroundImageFix" result="shape"/>
<feGaussianBlur stdDeviation="0.658423" result="effect1_foregroundBlur_380_6"/>
</filter>
<filter id="filter31_f_380_6" x="146.204" y="42.8208" width="4.72842" height="4.72891" filterUnits="userSpaceOnUse" color-interpolation-filters="sRGB">
<feFlood flood-opacity="0" result="BackgroundImageFix"/>
<feBlend mode="normal" in="SourceGraphic" in2="BackgroundImageFix" result="shape"/>
<feGaussianBlur stdDeviation="0.658423" result="effect1_foregroundBlur_380_6"/>
</filter>
<filter id="filter32_f_380_6" x="146.204" y="53.5953" width="4.72842" height="4.72891" filterUnits="userSpaceOnUse" color-interpolation-filters="sRGB">
<feFlood flood-opacity="0" result="BackgroundImageFix"/>
<feBlend mode="normal" in="SourceGraphic" in2="BackgroundImageFix" result="shape"/>
<feGaussianBlur stdDeviation="0.658423" result="effect1_foregroundBlur_380_6"/>
</filter>
<filter id="filter33_f_380_6" x="156.418" y="84.7452" width="3.29186" height="3.29186" filterUnits="userSpaceOnUse" color-interpolation-filters="sRGB">
<feFlood flood-opacity="0" result="BackgroundImageFix"/>
<feBlend mode="normal" in="SourceGraphic" in2="BackgroundImageFix" result="shape"/>
<feGaussianBlur stdDeviation="0.299283" result="effect1_foregroundBlur_380_6"/>
</filter>
<filter id="filter34_f_380_6" x="156.499" y="17.1397" width="3.29186" height="3.29235" filterUnits="userSpaceOnUse" color-interpolation-filters="sRGB">
<feFlood flood-opacity="0" result="BackgroundImageFix"/>
<feBlend mode="normal" in="SourceGraphic" in2="BackgroundImageFix" result="shape"/>
<feGaussianBlur stdDeviation="0.299283" result="effect1_foregroundBlur_380_6"/>
</filter>
<filter id="filter35_f_380_6" x="156.499" y="28.0435" width="3.29186" height="3.29235" filterUnits="userSpaceOnUse" color-interpolation-filters="sRGB">
<feFlood flood-opacity="0" result="BackgroundImageFix"/>
<feBlend mode="normal" in="SourceGraphic" in2="BackgroundImageFix" result="shape"/>
<feGaussianBlur stdDeviation="0.299283" result="effect1_foregroundBlur_380_6"/>
</filter>
<filter id="filter36_f_380_6" x="156.499" y="61.3316" width="3.29186" height="3.29235" filterUnits="userSpaceOnUse" color-interpolation-filters="sRGB">
<feFlood flood-opacity="0" result="BackgroundImageFix"/>
<feBlend mode="normal" in="SourceGraphic" in2="BackgroundImageFix" result="shape"/>
<feGaussianBlur stdDeviation="0.299283" result="effect1_foregroundBlur_380_6"/>
</filter>
<filter id="filter37_f_380_6" x="156.499" y="72.4049" width="3.29186" height="3.29235" filterUnits="userSpaceOnUse" color-interpolation-filters="sRGB">
<feFlood flood-opacity="0" result="BackgroundImageFix"/>
<feBlend mode="normal" in="SourceGraphic" in2="BackgroundImageFix" result="shape"/>
<feGaussianBlur stdDeviation="0.299283" result="effect1_foregroundBlur_380_6"/>
</filter>
<filter id="filter38_f_380_6" x="156.499" y="39.3341" width="3.29186" height="3.29235" filterUnits="userSpaceOnUse" color-interpolation-filters="sRGB">
<feFlood flood-opacity="0" result="BackgroundImageFix"/>
<feBlend mode="normal" in="SourceGraphic" in2="BackgroundImageFix" result="shape"/>
<feGaussianBlur stdDeviation="0.299283" result="effect1_foregroundBlur_380_6"/>
</filter>
<filter id="filter39_f_380_6" x="156.499" y="50.1085" width="3.29186" height="3.29235" filterUnits="userSpaceOnUse" color-interpolation-filters="sRGB">
<feFlood flood-opacity="0" result="BackgroundImageFix"/>
<feBlend mode="normal" in="SourceGraphic" in2="BackgroundImageFix" result="shape"/>
<feGaussianBlur stdDeviation="0.299283" result="effect1_foregroundBlur_380_6"/>
</filter>
<filter id="filter40_f_380_6" x="165.995" y="90.2862" width="3.29186" height="3.29186" filterUnits="userSpaceOnUse" color-interpolation-filters="sRGB">
<feFlood flood-opacity="0" result="BackgroundImageFix"/>
<feBlend mode="normal" in="SourceGraphic" in2="BackgroundImageFix" result="shape"/>
<feGaussianBlur stdDeviation="0.299283" result="effect1_foregroundBlur_380_6"/>
</filter>
<filter id="filter41_f_380_6" x="166.076" y="11.6026" width="3.29186" height="3.29235" filterUnits="userSpaceOnUse" color-interpolation-filters="sRGB">
<feFlood flood-opacity="0" result="BackgroundImageFix"/>
<feBlend mode="normal" in="SourceGraphic" in2="BackgroundImageFix" result="shape"/>
<feGaussianBlur stdDeviation="0.299283" result="effect1_foregroundBlur_380_6"/>
</filter>
<filter id="filter42_f_380_6" x="166.076" y="22.5069" width="3.29186" height="3.29235" filterUnits="userSpaceOnUse" color-interpolation-filters="sRGB">
<feFlood flood-opacity="0" result="BackgroundImageFix"/>
<feBlend mode="normal" in="SourceGraphic" in2="BackgroundImageFix" result="shape"/>
<feGaussianBlur stdDeviation="0.299283" result="effect1_foregroundBlur_380_6"/>
</filter>
<filter id="filter43_f_380_6" x="204.453" y="11.2232" width="3.29186" height="3.29235" filterUnits="userSpaceOnUse" color-interpolation-filters="sRGB">
<feFlood flood-opacity="0" result="BackgroundImageFix"/>
<feBlend mode="normal" in="SourceGraphic" in2="BackgroundImageFix" result="shape"/>
<feGaussianBlur stdDeviation="0.299283" result="effect1_foregroundBlur_380_6"/>
</filter>
<filter id="filter44_f_380_6" x="204.453" y="22.7457" width="3.29186" height="3.29235" filterUnits="userSpaceOnUse" color-interpolation-filters="sRGB">
<feFlood flood-opacity="0" result="BackgroundImageFix"/>
<feBlend mode="normal" in="SourceGraphic" in2="BackgroundImageFix" result="shape"/>
<feGaussianBlur stdDeviation="0.299283" result="effect1_foregroundBlur_380_6"/>
</filter>
<filter id="filter45_f_380_6" x="204.384" y="89.3487" width="3.29186" height="3.29284" filterUnits="userSpaceOnUse" color-interpolation-filters="sRGB">
<feFlood flood-opacity="0" result="BackgroundImageFix"/>
<feBlend mode="normal" in="SourceGraphic" in2="BackgroundImageFix" result="shape"/>
<feGaussianBlur stdDeviation="0.299283" result="effect1_foregroundBlur_380_6"/>
</filter>
<filter id="filter46_f_380_6" x="194.727" y="5.53669" width="3.29186" height="3.29235" filterUnits="userSpaceOnUse" color-interpolation-filters="sRGB">
<feFlood flood-opacity="0" result="BackgroundImageFix"/>
<feBlend mode="normal" in="SourceGraphic" in2="BackgroundImageFix" result="shape"/>
<feGaussianBlur stdDeviation="0.299283" result="effect1_foregroundBlur_380_6"/>
</filter>
<filter id="filter47_f_380_6" x="194.727" y="17.0591" width="3.29186" height="3.29235" filterUnits="userSpaceOnUse" color-interpolation-filters="sRGB">
<feFlood flood-opacity="0" result="BackgroundImageFix"/>
<feBlend mode="normal" in="SourceGraphic" in2="BackgroundImageFix" result="shape"/>
<feGaussianBlur stdDeviation="0.299283" result="effect1_foregroundBlur_380_6"/>
</filter>
<filter id="filter48_f_380_6" x="194.807" y="95.0206" width="3.29186" height="3.29284" filterUnits="userSpaceOnUse" color-interpolation-filters="sRGB">
<feFlood flood-opacity="0" result="BackgroundImageFix"/>
<feBlend mode="normal" in="SourceGraphic" in2="BackgroundImageFix" result="shape"/>
<feGaussianBlur stdDeviation="0.299283" result="effect1_foregroundBlur_380_6"/>
</filter>
<filter id="filter49_f_380_6" x="175.572" y="95.9005" width="3.29186" height="3.29186" filterUnits="userSpaceOnUse" color-interpolation-filters="sRGB">
<feFlood flood-opacity="0" result="BackgroundImageFix"/>
<feBlend mode="normal" in="SourceGraphic" in2="BackgroundImageFix" result="shape"/>
<feGaussianBlur stdDeviation="0.299283" result="effect1_foregroundBlur_380_6"/>
</filter>
<filter id="filter50_f_380_6" x="175.653" y="6.06598" width="3.29186" height="3.29235" filterUnits="userSpaceOnUse" color-interpolation-filters="sRGB">
<feFlood flood-opacity="0" result="BackgroundImageFix"/>
<feBlend mode="normal" in="SourceGraphic" in2="BackgroundImageFix" result="shape"/>
<feGaussianBlur stdDeviation="0.299283" result="effect1_foregroundBlur_380_6"/>
</filter>
<filter id="filter51_f_380_6" x="175.653" y="16.9703" width="3.29186" height="3.29235" filterUnits="userSpaceOnUse" color-interpolation-filters="sRGB">
<feFlood flood-opacity="0" result="BackgroundImageFix"/>
<feBlend mode="normal" in="SourceGraphic" in2="BackgroundImageFix" result="shape"/>
<feGaussianBlur stdDeviation="0.299283" result="effect1_foregroundBlur_380_6"/>
</filter>
<filter id="filter52_f_380_6" x="185.299" y="6.64592e-05" width="3.29186" height="3.29235" filterUnits="userSpaceOnUse" color-interpolation-filters="sRGB">
<feFlood flood-opacity="0" result="BackgroundImageFix"/>
<feBlend mode="normal" in="SourceGraphic" in2="BackgroundImageFix" result="shape"/>
<feGaussianBlur stdDeviation="0.299283" result="effect1_foregroundBlur_380_6"/>
</filter>
<filter id="filter53_f_380_6" x="185.299" y="11.5225" width="3.29186" height="3.29235" filterUnits="userSpaceOnUse" color-interpolation-filters="sRGB">
<feFlood flood-opacity="0" result="BackgroundImageFix"/>
<feBlend mode="normal" in="SourceGraphic" in2="BackgroundImageFix" result="shape"/>
<feGaussianBlur stdDeviation="0.299283" result="effect1_foregroundBlur_380_6"/>
</filter>
<filter id="filter54_f_380_6" x="185.23" y="101.047" width="3.29186" height="3.29284" filterUnits="userSpaceOnUse" color-interpolation-filters="sRGB">
<feFlood flood-opacity="0" result="BackgroundImageFix"/>
<feBlend mode="normal" in="SourceGraphic" in2="BackgroundImageFix" result="shape"/>
<feGaussianBlur stdDeviation="0.299283" result="effect1_foregroundBlur_380_6"/>
</filter>
</defs>
</svg>
